<?xml version="1.0" encoding="UTF-8"?>
<!DOCTYPE svg PUBLIC "-//W3C//DTD SVG 1.1//EN" "http://www.w3.org/Graphics/SVG/1.1/DTD/svg11.dtd">
<svg xmlns="http://www.w3.org/2000/svg" version="1.1" width="206px" height="42px" style="shape-rendering:geometricPrecision; text-rendering:geometricPrecision; image-rendering:optimizeQuality; fill-rule:evenodd; clip-rule:evenodd" xmlns:xlink="http://www.w3.org/1999/xlink">
<g><path style="opacity:0.934" fill="#35b2d8" d="M -0.5,-0.5 C 1.16667,-0.5 2.83333,-0.5 4.5,-0.5C 4.3347,3.18174 4.50137,6.84841 5,10.5C 6.11268,9.69499 7.27935,9.02832 8.5,8.5C 8.37133,10.2161 8.038,11.8828 7.5,13.5C 3.07177,19.2549 3.73844,24.2549 9.5,28.5C 8.59464,29.9643 8.59464,31.2976 9.5,32.5C 7.28428,31.7974 5.45095,30.4641 4,28.5C 3.50999,29.7932 3.34332,31.1266 3.5,32.5C 2.16667,32.5 0.833333,32.5 -0.5,32.5C -0.5,21.5 -0.5,10.5 -0.5,-0.5 Z"/></g>
<g><path style="opacity:0.981" fill="#7591e7" d="M 128.5,-0.5 C 130.167,-0.5 131.833,-0.5 133.5,-0.5C 133.5,10.5 133.5,21.5 133.5,32.5C 131.833,32.5 130.167,32.5 128.5,32.5C 128.5,31.1667 128.5,29.8333 128.5,28.5C 128.611,27.8826 128.944,27.3826 129.5,27C 128.498,25.8437 127.498,25.3437 126.5,25.5C 128.023,21.6454 127.69,17.9788 125.5,14.5C 126.551,13.7777 127.218,12.7777 127.5,11.5C 128.483,7.70159 128.817,3.70159 128.5,-0.5 Z"/></g>
<g><path style="opacity:0.825" fill="#51a4df" d="M 65.5,28.5 C 66.9526,29.8249 66.6192,30.6582 64.5,31C 65.3805,31.7083 66.0472,32.5416 66.5,33.5C 61.8476,34.016 58.3476,32.3493 56,28.5C 54.6156,21.5888 54.1156,14.5888 54.5,7.5C 56.1667,7.5 57.8333,7.5 59.5,7.5C 59.334,12.8437 59.5006,18.1771 60,23.5C 60.4365,26.7723 62.2699,28.439 65.5,28.5 Z"/></g>
<g><path style="opacity:0.805" fill="#599fe1" d="M 73.5,29.5 C 72.8333,28.5 72.1667,27.5 71.5,26.5C 73.2523,20.3192 73.9189,13.9859 73.5,7.5C 75.1667,7.5 76.8333,7.5 78.5,7.5C 78.5,15.8333 78.5,24.1667 78.5,32.5C 76.8333,32.5 75.1667,32.5 73.5,32.5C 73.5,31.5 73.5,30.5 73.5,29.5 Z"/></g>
<g><path style="opacity:0.847" fill="#5e9ee2" d="M 87.5,10.5 C 87.5569,11.609 87.8902,12.609 88.5,13.5C 86.6353,19.5882 85.9686,25.9216 86.5,32.5C 84.8333,32.5 83.1667,32.5 81.5,32.5C 81.5,24.1667 81.5,15.8333 81.5,7.5C 83.1667,7.5 84.8333,7.5 86.5,7.5C 86.2627,8.79105 86.596,9.79105 87.5,10.5 Z"/></g>
<g><path style="opacity:0.926" fill="#629ce3" d="M 94.5,7.5 C 95.562,9.23411 95.562,10.9008 94.5,12.5C 92.4352,12.5172 90.4352,12.8505 88.5,13.5C 87.8902,12.609 87.5569,11.609 87.5,10.5C 89.4261,8.70732 91.7594,7.70732 94.5,7.5 Z"/></g>
<g><path style="opacity:0.836" fill="#6699e4" d="M 94.5,7.5 C 99.3851,6.85581 102.552,8.85581 104,13.5C 104.5,19.8246 104.666,26.1579 104.5,32.5C 102.833,32.5 101.167,32.5 99.5,32.5C 99.6661,26.8236 99.4994,21.1569 99,15.5C 98.4115,13.1367 96.9115,12.1367 94.5,12.5C 95.562,10.9008 95.562,9.23411 94.5,7.5 Z"/></g>
<g><path style="opacity:0.855" fill="#6c97e5" d="M 117.5,7.5 C 117.634,9.29152 117.301,10.9582 116.5,12.5C 111.35,15.6508 110.183,19.9842 113,25.5C 114.488,27.16 116.321,28.16 118.5,28.5C 116.685,29.9393 116.018,31.606 116.5,33.5C 106.192,29.0251 103.692,21.6918 109,11.5C 111.397,9.21772 114.231,7.88438 117.5,7.5 Z"/></g>
<g><path style="opacity:0.84" fill="#808ceb" d="M 145.5,7.5 C 150.126,6.70039 153.96,8.03372 157,11.5C 157.112,8.55291 158.612,7.21958 161.5,7.5C 161.082,8.22158 160.416,8.72158 159.5,9C 160.517,10.0495 160.684,11.2161 160,12.5C 159.111,11.1118 158.611,11.2785 158.5,13C 158.759,14.2613 159.426,15.2613 160.5,16C 159.185,17.3946 159.519,18.3946 161.5,19C 160.833,19.3333 160.167,19.6667 159.5,20C 159.409,22.822 159.742,25.4887 160.5,28C 160.293,29.9497 159.293,31.1164 157.5,31.5C 157.631,30.7611 157.464,30.0944 157,29.5C 153.157,33.3361 148.657,34.3361 143.5,32.5C 144.429,31.6851 145.429,30.8518 146.5,30C 145.944,29.6174 145.611,29.1174 145.5,28.5C 156.313,28.2233 159.313,23.39 154.5,14C 152.323,12.7978 149.989,12.2978 147.5,12.5C 146.032,11.2209 145.365,9.5542 145.5,7.5 Z"/></g>
<g><path style="opacity:0.865" fill="#848aeb" d="M 161.5,7.5 C 162.493,15.6499 162.826,23.9832 162.5,32.5C 160.585,32.7845 158.919,32.4511 157.5,31.5C 159.293,31.1164 160.293,29.9497 160.5,28C 159.742,25.4887 159.409,22.822 159.5,20C 160.167,19.6667 160.833,19.3333 161.5,19C 159.519,18.3946 159.185,17.3946 160.5,16C 159.426,15.2613 158.759,14.2613 158.5,13C 158.611,11.2785 159.111,11.1118 160,12.5C 160.684,11.2161 160.517,10.0495 159.5,9C 160.416,8.72158 161.082,8.22158 161.5,7.5 Z"/></g>
<g><path style="opacity:0.802" fill="#9781f0" d="M 205.5,7.5 C 205.5,8.5 205.5,9.5 205.5,10.5C 202.928,15.3151 200.594,20.3151 198.5,25.5C 197.203,23.6287 196.203,21.6287 195.5,19.5C 197.354,15.9469 199.021,12.2803 200.5,8.5C 202.045,7.54811 203.712,7.21478 205.5,7.5 Z"/></g>
<g><path style="opacity:0.923" fill="#7194e6" d="M 117.5,7.5 C 121.567,7.20633 124.9,8.53966 127.5,11.5C 127.218,12.7777 126.551,13.7777 125.5,14.5C 122.838,12.7319 119.838,12.0653 116.5,12.5C 117.301,10.9582 117.634,9.29152 117.5,7.5 Z"/></g>
<g><path style="opacity:0.848" fill="#8888ed" d="M 179.5,8.5 C 179.5,8.83333 179.5,9.16667 179.5,9.5C 179.586,10.4959 179.252,11.3292 178.5,12C 175.993,12.0929 173.826,12.9262 172,14.5C 170.696,20.4229 170.196,26.4229 170.5,32.5C 168.833,32.5 167.167,32.5 165.5,32.5C 165.5,24.1667 165.5,15.8333 165.5,7.5C 167.766,7.14118 169.599,7.80784 171,9.5C 173.665,7.39748 176.499,7.06415 179.5,8.5 Z"/></g>
<g><path style="opacity:0.932" fill="#9084ef" d="M 192.5,25.5 C 190.97,26.2112 189.637,27.2112 188.5,28.5C 185.739,21.9809 182.739,15.6476 179.5,9.5C 179.5,9.16667 179.5,8.83333 179.5,8.5C 181.265,7.53862 183.265,7.20528 185.5,7.5C 187.438,13.6456 189.771,19.6456 192.5,25.5 Z"/></g>
<g><path style="opacity:0.85" fill="#4ca6de" d="M 42.5,7.5 C 52.0309,10.5712 55.1975,16.9045 52,26.5C 50.9455,29.0559 49.1122,30.7225 46.5,31.5C 44.8958,30.713 44.2291,29.3797 44.5,27.5C 49.3246,23.357 49.6579,18.857 45.5,14C 43.6547,12.872 41.6547,12.372 39.5,12.5C 40.2485,10.6675 41.2485,9.00087 42.5,7.5 Z"/></g>
<g><path style="opacity:0.938" fill="#7a8fe9" d="M 145.5,7.5 C 145.365,9.5542 146.032,11.2209 147.5,12.5C 143.342,13.4376 141.008,16.1043 140.5,20.5C 141.366,23.6925 143.032,26.3592 145.5,28.5C 145.611,29.1174 145.944,29.6174 146.5,30C 145.429,30.8518 144.429,31.6851 143.5,32.5C 135.5,27.653 133.667,20.9863 138,12.5C 139.86,9.79561 142.36,8.12895 145.5,7.5 Z"/></g>
<g><path style="opacity:0.945" fill="#3eaddb" d="M 26.5,19.5 C 26.5,20.1667 26.5,20.8333 26.5,21.5C 25.7456,24.3425 24.4123,27.0091 22.5,29.5C 20.9288,31.415 18.9288,32.415 16.5,32.5C 17.9538,30.7367 17.6204,29.4033 15.5,28.5C 22.3554,23.6304 22.6888,18.4637 16.5,13C 13.4453,12.3658 10.4453,12.5325 7.5,13.5C 8.038,11.8828 8.37133,10.2161 8.5,8.5C 18.3538,6.08603 24.3538,9.75269 26.5,19.5 Z"/></g>
<g><path style="opacity:0.889" fill="#44abdc" d="M 42.5,7.5 C 41.2485,9.00087 40.2485,10.6675 39.5,12.5C 33.8722,13.4034 31.3722,16.7367 32,22.5C 32.6622,23.9839 33.4955,25.3172 34.5,26.5C 33.7109,26.7828 33.0442,27.2828 32.5,28C 33.5981,28.7697 33.5981,29.603 32.5,30.5C 29.0042,28.642 27.0042,25.642 26.5,21.5C 26.5,20.8333 26.5,20.1667 26.5,19.5C 28.1385,10.6723 33.4719,6.6723 42.5,7.5 Z"/></g>
<g><path style="opacity:0.903" fill="#9382ef" d="M 195.5,19.5 C 196.203,21.6287 197.203,23.6287 198.5,25.5C 196.167,30.8333 193.833,36.1667 191.5,41.5C 189.833,41.5 188.167,41.5 186.5,41.5C 187.779,38.6052 188.779,35.6052 189.5,32.5C 189.377,31.0755 189.043,29.7421 188.5,28.5C 189.637,27.2112 190.97,26.2112 192.5,25.5C 194.008,23.8185 195.008,21.8185 195.5,19.5 Z"/></g>
<g><path style="opacity:0.859" fill="#7194e6" d="M 126.5,25.5 C 127.498,25.3437 128.498,25.8437 129.5,27C 128.944,27.3826 128.611,27.8826 128.5,28.5C 125.41,32.0925 121.41,33.7592 116.5,33.5C 116.018,31.606 116.685,29.9393 118.5,28.5C 121.615,28.6061 124.281,27.6061 126.5,25.5 Z"/></g>
<g><path style="opacity:0.905" fill="#47a9dd" d="M 34.5,26.5 C 37.5645,28.7846 40.8979,29.1179 44.5,27.5C 44.2291,29.3797 44.8958,30.713 46.5,31.5C 42.3837,33.9576 38.0504,34.1243 33.5,32C 32.944,31.6174 32.6107,31.1174 32.5,30.5C 33.5981,29.603 33.5981,28.7697 32.5,28C 33.0442,27.2828 33.7109,26.7828 34.5,26.5 Z"/></g>
<g><path style="opacity:0.868" fill="#3aafd9" d="M 9.5,28.5 C 11.5,28.5 13.5,28.5 15.5,28.5C 17.6204,29.4033 17.9538,30.7367 16.5,32.5C 14.2743,33.7563 11.941,33.7563 9.5,32.5C 8.59464,31.2976 8.59464,29.9643 9.5,28.5 Z"/></g>
<g><path style="opacity:0.964" fill="#56a1e0" d="M 71.5,26.5 C 72.1667,27.5 72.8333,28.5 73.5,29.5C 71.3295,31.0862 68.9962,32.4196 66.5,33.5C 66.0472,32.5416 65.3805,31.7083 64.5,31C 66.6192,30.6582 66.9526,29.8249 65.5,28.5C 67.7028,28.3964 69.7028,27.7298 71.5,26.5 Z"/></g>
</svg>
